<svg width="883" height="623" viewBox="0 0 883 623" fill="none" xmlns="http://www.w3.org/2000/svg">
<g clip-path="url(#clip0_3_66)">
<path d="M102.896 543.047C102.896 543.047 -9.40991 490.502 30.0431 454.064C69.4961 417.626 102.896 543.047 102.896 543.047Z" fill="#E6E6E6"/>
<path d="M100.941 555.307C100.941 555.307 49.3214 382.93 125.334 391.174C201.346 399.418 100.941 555.307 100.941 555.307Z" fill="#E6E6E6"/>
<path d="M63.3047 540.019L65.4713 568.855L65.5056 569.353C65.5036 573.855 65.7274 578.355 66.1763 582.835C69.1166 612.247 81.7548 625.651 96.5253 625.651C111.296 625.651 123.384 612.247 126.324 582.835C126.773 578.355 126.997 573.855 126.995 569.353L127.012 568.951L127.02 568.855L129.196 540.019H63.3047Z" fill="#E6E6E6"/>
<path d="M127.02 568.854L127.012 568.951L126.995 569.353C126.997 573.855 126.773 578.356 126.324 582.835H66.1763C65.7274 578.356 65.5036 573.855 65.5056 569.353L65.4713 568.854H127.02Z" fill="white"/>
<path d="M835.384 560.681C835.384 560.681 748.435 520 778.98 491.789C809.525 463.579 835.384 560.681 835.384 560.681Z" fill="#E6E6E6"/>
<path d="M833.871 570.173C833.871 570.173 793.906 436.716 852.756 443.099C911.606 449.481 833.871 570.173 833.871 570.173Z" fill="#E6E6E6"/>
<path d="M804.732 558.337L806.409 580.662L806.436 581.047C806.434 584.534 806.607 588.018 806.955 591.486C809.231 614.257 819.016 624.635 830.452 624.635C841.887 624.635 851.246 614.257 853.522 591.486C853.87 588.018 854.043 584.534 854.042 581.047L854.055 580.736L854.061 580.662L855.746 558.337H804.732Z" fill="#E6E6E6"/>
<path d="M854.061 580.662L854.055 580.736L854.042 581.048C854.043 584.534 853.87 588.018 853.522 591.486H806.955C806.607 588.018 806.434 584.534 806.436 581.048L806.409 580.662H854.061Z" fill="white"/>
<path d="M292.716 189.635V150.418H286.716V189.635C284.995 190.343 283.57 191.637 282.684 193.295C281.799 194.954 281.509 196.873 281.863 198.725C282.218 200.578 283.195 202.247 284.628 203.447C286.061 204.647 287.86 205.303 289.716 205.303C291.573 205.303 293.371 204.647 294.804 203.447C296.237 202.247 297.214 200.578 297.569 198.725C297.923 196.873 297.633 194.954 296.748 193.295C295.862 191.637 294.437 190.343 292.716 189.635Z" fill="#E6E6E6"/>
<path d="M306.716 585.409H265.716V79.2742H249.716V585.409H208.716C203.857 585.409 199.046 586.382 194.557 588.272C190.068 590.162 185.989 592.932 182.553 596.423C179.117 599.915 176.392 604.061 174.532 608.623C172.673 613.185 171.716 618.075 171.716 623.014V623.014H343.716V623.014C343.716 618.075 342.759 613.185 340.9 608.623C339.04 604.061 336.315 599.915 332.879 596.423C329.443 592.932 325.364 590.162 320.875 588.272C316.386 586.382 311.575 585.409 306.716 585.409Z" fill="#E6E6E6"/>
<path d="M171.799 154.483H343.633L333.125 20.9972C332.741 16.3943 330.676 12.1041 327.336 8.97068C323.997 5.83723 319.624 4.08734 315.079 4.0653H200.353C195.808 4.08734 191.435 5.83723 188.096 8.97066C184.756 12.1041 182.691 16.3942 182.307 20.9971L171.799 154.483Z" fill="#6C63FF"/>
<path d="M411.055 388.769C409.439 388.495 407.785 388.551 406.19 388.933C404.595 389.315 403.091 390.015 401.764 390.992C400.438 391.97 399.315 393.206 398.463 394.628C397.61 396.05 397.044 397.63 396.797 399.276L391.959 431.544L408.419 435.981L420.48 405.917C421.181 404.17 421.486 402.285 421.373 400.402C421.259 398.519 420.73 396.686 419.825 395.039C418.92 393.392 417.661 391.973 416.143 390.888C414.625 389.802 412.886 389.078 411.055 388.769Z" fill="#A0616A"/>
<path d="M410.747 431.483C419.882 468.379 415.951 502.125 381.935 528.621C341.136 517.191 314 489.612 297.444 449.532C296.415 447.04 295.893 444.362 295.91 441.659C295.927 438.956 296.483 436.285 297.544 433.807C298.605 431.328 300.149 429.094 302.083 427.239C304.017 425.384 306.301 423.947 308.797 423.013C312.547 421.612 316.628 421.404 320.496 422.418C324.365 423.431 327.839 425.618 330.455 428.687L370.487 475.645L389.266 428.295L410.747 431.483Z" fill="#6C63FF"/>
<path d="M619.788 625.054C582.535 623.042 559.393 610.042 553.788 583.384L559.788 572.204L628.483 604.01C630.217 604.813 631.677 606.121 632.677 607.77C633.678 609.419 634.173 611.332 634.101 613.268C634.029 615.203 633.391 617.073 632.271 618.64C631.15 620.206 629.596 621.399 627.807 622.065L619.788 625.054Z" fill="#E6E6E6"/>
<path d="M591.003 625.321C571.647 624.725 553.032 624.91 535.394 626.123C532.3 626.338 529.248 625.305 526.899 623.247C524.55 621.189 523.094 618.273 522.847 615.131L521.788 601.678L506.788 577.286L519.788 564.073C541.635 586.188 565.595 604.763 594.051 615.804C594.966 616.441 595.653 617.362 596.009 618.428C596.366 619.495 596.373 620.651 596.03 621.722C595.687 622.793 595.012 623.723 594.106 624.371C593.199 625.02 592.111 625.353 591.003 625.321Z" fill="#E6E6E6"/>
<path d="M485.788 529.518C461.071 574.467 436.763 604.768 404.788 620.988C365.449 634.184 336.698 616.701 314.288 580.843L379.288 537.141L388.788 546.796L474.886 480.207C476.989 478.183 479.793 477.085 482.689 477.15C485.584 477.216 488.337 478.44 490.35 480.557L563.788 572.204L554.788 587.449L485.788 529.518Z" fill="#2F2E41"/>
<path d="M507.788 582.368L473.788 529.518L481.788 514.273L526.788 562.041L507.788 582.368Z" fill="#2F2E41"/>
<path d="M311.788 413.656C330.566 413.656 345.788 398.185 345.788 379.1C345.788 360.016 330.566 344.545 311.788 344.545C293.01 344.545 277.788 360.016 277.788 379.1C277.788 398.185 293.01 413.656 311.788 413.656Z" fill="#A0616A"/>
<path d="M320.788 443.129L282.788 429.917C288.411 420.836 290.876 410.1 289.788 399.427H320.788C319.025 414.934 318.761 429.642 320.788 443.129Z" fill="#A0616A"/>
<path d="M401.788 535.616C396.091 537.993 395.675 545.701 390.288 548.32C364.248 560.983 336.699 571.257 317.788 589.482C273.595 558.982 232.633 464.252 285.788 422.803C303.932 433.593 320.139 441.315 319.788 422.803L401.788 535.616Z" fill="#6C63FF"/>
<path opacity="0.2" d="M378.788 494.963L360.288 488.356L323.788 517.322L307.426 457.457C306.291 453.304 304.452 455.409 301.812 458.293C299.06 455.704 295.637 453.969 291.946 453.292C288.256 452.616 284.452 453.026 280.983 454.474C277.514 455.922 274.525 458.348 272.368 461.466C270.211 464.584 268.976 468.264 268.81 472.071C266.863 515.496 279.748 552.233 311.788 580.335C353.695 571.215 371.48 542.439 378.788 505.126L376.807 503.784C377.537 500.9 378.197 497.96 378.788 494.963Z" fill="black"/>
<path d="M316.363 333.644C327.578 336.248 340.343 339.937 341.059 343.367C352.595 346.322 361.303 353.399 363.081 364.188C363.23 365.121 363.175 366.075 362.922 366.984C362.668 367.893 362.222 368.734 361.613 369.449C361.005 370.163 360.251 370.733 359.402 371.119C358.554 371.505 357.632 371.697 356.703 371.682C350.429 371.6 341.01 370.989 334.791 368.349C316.724 380.18 313.692 410.952 321.582 431.898L309.166 430.742L296.321 392.525L293.04 429.239L264.707 425.432L268.357 378.615C269.478 367.58 273.173 356.977 279.135 347.685C279.754 346.751 280.431 345.86 281.163 345.014C285.473 340.065 291.021 336.395 297.219 334.393C303.417 332.391 310.032 332.132 316.363 333.644Z" fill="#2F2E41"/>
<path d="M380.285 449.655L411.402 486.836L458.078 430.85L426.54 391.959L380.285 449.655Z" fill="#3F3D56"/>
<path d="M450.088 432.133L413.084 401.362C415.186 396.233 425.278 397.943 425.278 397.943L454.245 427.788C455.254 428.828 456.119 430.002 456.816 431.278L450.088 432.133Z" fill="#F2F2F2"/>
<path d="M451.77 429.996L409.72 396.661L363.044 468.459L406.987 498.589C411.192 500.299 415.397 497.307 415.397 497.307L458.288 430.637L451.77 429.996Z" fill="#3F3D56"/>
<path d="M414.964 407.065L414.566 407.628L441.48 427.284L441.878 426.721L414.964 407.065Z" fill="#6C63FF"/>
<path d="M442.235 434.078L406.913 488.355L407.481 488.737L442.803 434.46L442.235 434.078Z" fill="#6C63FF"/>
<path d="M374.603 468.603L374.199 469.161L402.787 490.539L403.191 489.981L374.603 468.603Z" fill="#6C63FF"/>
<path d="M409.861 408.002L373.277 461.423L373.836 461.819L410.42 408.397L409.861 408.002Z" fill="#6C63FF"/>
<path d="M421.161 397.519L420.877 397.834L454.151 428.871L454.435 428.556L421.161 397.519Z" fill="#B3B3B3"/>
<path d="M418.389 397.785L418.111 398.106L452.887 429.308L453.165 428.987L418.389 397.785Z" fill="#B3B3B3"/>
<path d="M416.214 398.407L415.944 398.735L452.045 429.319L452.314 428.99L416.214 398.407Z" fill="#B3B3B3"/>
<path d="M397.081 460.57C395.736 459.619 394.219 458.949 392.617 458.6C391.015 458.25 389.36 458.227 387.749 458.532C386.139 458.837 384.604 459.465 383.233 460.378C381.863 461.292 380.685 462.472 379.768 463.852L361.788 490.897L374.788 502.077L398.364 480.169C399.734 478.896 400.805 477.326 401.496 475.576C402.188 473.825 402.483 471.939 402.36 470.056C402.237 468.174 401.698 466.344 400.785 464.702C399.871 463.06 398.605 461.648 397.081 460.57Z" fill="#A0616A"/>
<path d="M378.788 499.028C371.48 536.341 353.695 565.117 311.788 574.237C279.748 546.135 266.863 509.398 268.81 465.973C268.931 463.273 269.589 460.626 270.744 458.192C271.9 455.758 273.529 453.587 275.532 451.81C277.536 450.033 279.874 448.687 282.403 447.854C284.933 447.02 287.603 446.716 290.251 446.96C294.23 447.328 298.005 448.918 301.073 451.519C304.141 454.121 306.357 457.609 307.426 461.522L323.788 521.387L360.725 486.789L378.788 499.028Z" fill="#6C63FF"/>
<path d="M461.288 97.0671C460.758 97.0676 460.249 97.2819 459.874 97.663C459.499 98.0441 459.289 98.5608 459.288 99.0998V257.648C459.289 258.187 459.499 258.704 459.874 259.085C460.249 259.466 460.758 259.68 461.288 259.681H591.288C591.818 259.68 592.327 259.466 592.702 259.085C593.076 258.704 593.287 258.187 593.288 257.648V99.0998C593.287 98.5608 593.076 98.0442 592.702 97.6631C592.327 97.282 591.818 97.0677 591.288 97.0671H461.288Z" fill="#E6E6E6"/>
<path d="M474.788 243.928H577.788V112.82H474.788V243.928Z" fill="white"/>
<path d="M677.721 138.737C677.404 138.737 677.101 138.865 676.877 139.093C676.653 139.32 676.527 139.629 676.527 139.95V218.83C676.527 219.152 676.653 219.46 676.877 219.688C677.101 219.915 677.404 220.043 677.721 220.044H770.855C771.172 220.043 771.475 219.915 771.699 219.688C771.923 219.46 772.049 219.152 772.049 218.83V139.95C772.049 139.629 771.923 139.32 771.699 139.093C771.475 138.865 771.172 138.737 770.855 138.737L677.721 138.737Z" fill="#E6E6E6"/>
<path d="M685.781 148.142V210.639H762.796V148.142H685.781Z" fill="white"/>
<path d="M544.475 108.247H508.102C507.223 108.25 506.358 108.018 505.596 107.573C504.834 107.127 504.201 106.485 503.762 105.712C503.322 104.938 503.092 104.06 503.093 103.167C503.095 102.273 503.329 101.396 503.771 100.624L521.958 68.6097C521.973 68.5834 521.988 68.5571 522.003 68.5308C522.401 67.8498 522.951 67.2741 523.609 66.8504C524.267 66.4268 525.014 66.1673 525.79 66.0931L525.816 66.0906C525.972 66.0763 526.129 66.0688 526.288 66.0688C527.167 66.0635 528.031 66.2961 528.792 66.7426C529.553 67.1892 530.183 67.8336 530.618 68.6097L548.805 100.624C549.243 101.397 549.474 102.273 549.474 103.165C549.474 104.057 549.243 104.933 548.805 105.706C548.366 106.478 547.735 107.12 546.974 107.566C546.214 108.012 545.352 108.247 544.475 108.247ZM507.098 103.16C507.099 103.34 507.147 103.517 507.235 103.673C507.322 103.829 507.448 103.958 507.6 104.048C507.752 104.137 507.926 104.183 508.101 104.181H544.474C544.65 104.183 544.824 104.137 544.976 104.048C545.128 103.958 545.254 103.829 545.341 103.673C545.429 103.517 545.477 103.341 545.478 103.161C545.477 102.983 545.43 102.81 545.341 102.657L527.154 70.6423C527.066 70.4878 526.94 70.3595 526.788 70.2703C526.636 70.1811 526.464 70.1342 526.288 70.1342C526.112 70.1342 525.94 70.1811 525.788 70.2703C525.636 70.3595 525.51 70.4878 525.422 70.6423L507.235 102.657C507.146 102.809 507.099 102.983 507.098 103.16Z" fill="#E6E6E6"/>
<path d="M526.288 75.724C527.945 75.724 529.288 74.3589 529.288 72.675C529.288 70.9911 527.945 69.626 526.288 69.626C524.631 69.626 523.288 70.9911 523.288 72.675C523.288 74.3589 524.631 75.724 526.288 75.724Z" fill="#E6E6E6"/>
<path d="M734.148 141.278H714.428C713.951 141.28 713.483 141.153 713.069 140.912C712.656 140.671 712.313 140.323 712.075 139.903C711.836 139.484 711.711 139.008 711.712 138.523C711.713 138.039 711.84 137.564 712.08 137.145L721.94 119.788L721.965 119.745C722.18 119.376 722.479 119.064 722.835 118.834C723.192 118.604 723.597 118.464 724.018 118.423L724.032 118.422C724.116 118.414 724.202 118.41 724.288 118.41C724.764 118.407 725.233 118.533 725.646 118.775C726.058 119.018 726.4 119.367 726.636 119.788L736.496 137.145C736.734 137.564 736.859 138.039 736.859 138.523C736.859 139.006 736.734 139.481 736.496 139.9C736.258 140.319 735.915 140.667 735.503 140.908C735.091 141.15 734.624 141.278 734.148 141.278ZM713.883 138.52C713.884 138.618 713.91 138.713 713.958 138.798C714.005 138.882 714.073 138.953 714.156 139.001C714.238 139.05 714.332 139.075 714.428 139.074H734.148C734.243 139.075 734.337 139.05 734.42 139.001C734.503 138.953 734.571 138.883 734.618 138.798C734.666 138.714 734.691 138.618 734.692 138.52C734.692 138.424 734.666 138.33 734.618 138.247L724.758 120.89C724.71 120.806 724.642 120.736 724.559 120.688C724.477 120.64 724.383 120.614 724.288 120.614C724.193 120.614 724.099 120.64 724.017 120.688C723.934 120.736 723.866 120.806 723.818 120.89L713.958 138.247C713.91 138.33 713.884 138.424 713.883 138.52Z" fill="#E6E6E6"/>
<path d="M724.288 123.645C725.186 123.645 725.914 122.905 725.914 121.992C725.914 121.079 725.186 120.339 724.288 120.339C723.39 120.339 722.661 121.079 722.661 121.992C722.661 122.905 723.39 123.645 724.288 123.645Z" fill="#E6E6E6"/>
<path d="M475.966 194.006C477.403 190.653 479.498 187.632 482.122 185.128C484.746 182.625 487.844 180.691 491.228 179.445C494.747 178.064 498.518 177.473 502.282 177.711C506.047 177.949 509.717 179.011 513.04 180.824C520.844 185.033 527.082 191.651 535.008 195.68C542.714 199.56 551.194 201.59 559.794 201.614C569.531 201.691 579.116 199.163 587.587 194.282C587.916 194.071 588.152 193.738 588.244 193.354C588.336 192.969 588.278 192.564 588.082 192.222C587.885 191.88 587.566 191.63 587.191 191.523C586.816 191.416 586.415 191.461 586.073 191.649C578.396 196.022 569.773 198.396 560.974 198.56C552.175 198.724 543.473 196.673 535.643 192.59C527.692 188.352 521.392 181.511 513.292 177.541C509.853 175.845 506.118 174.86 502.302 174.642C498.486 174.424 494.665 174.979 491.061 176.273C487.055 177.639 483.38 179.853 480.279 182.771C477.178 185.688 474.722 189.241 473.073 193.196C472.345 195.012 475.246 195.802 475.966 194.006V194.006Z" fill="#E6E6E6"/>
<path d="M473.596 222.507C490.244 218.729 507.514 218.79 524.136 222.685C538.903 226.165 554.146 232.427 569.37 227.757C576.172 225.671 582.405 221.498 585.9 215.076C586.835 213.358 584.245 211.818 583.309 213.537C576.73 225.629 561.317 227.669 549.143 225.685C541.009 224.359 533.169 221.701 525.163 219.799C507.95 215.697 490.046 215.618 472.798 219.567C470.915 219.994 471.712 222.934 473.596 222.507Z" fill="#E6E6E6"/>
<path d="M472.515 154.353C488.478 151.594 504.827 152.185 520.557 156.09C535.252 159.749 549.616 168.109 565.154 166.665C572.348 165.997 579.47 163.308 584.357 157.715C585.635 156.252 583.521 154.088 582.235 155.559C578.02 160.384 571.948 162.885 565.717 163.56C558.535 164.339 551.479 162.827 544.643 160.678C537.077 158.3 529.726 155.287 522.034 153.321C505.577 149.121 488.437 148.471 471.717 151.413C469.818 151.742 470.623 154.681 472.515 154.353Z" fill="#E6E6E6"/>
<path d="M699.192 147.112C706.089 154.29 710.847 163.306 712.914 173.117C714.504 180.921 714.325 188.991 712.39 196.715C710.455 204.439 706.815 211.613 701.746 217.695C700.503 219.182 702.616 221.349 703.868 219.851C710.773 211.582 715.183 201.463 716.566 190.709C717.575 182.408 716.727 173.982 714.086 166.061C711.445 158.139 707.079 150.925 701.313 144.956C699.959 143.553 697.839 145.709 699.192 147.112Z" fill="#E6E6E6"/>
<path d="M744.203 140.606C735.009 147.459 729.861 158.521 729.137 169.963C728.384 181.868 732.851 193.365 740.045 202.608C744.242 207.93 749.256 212.53 754.893 216.231C756.513 217.308 758.018 214.669 756.407 213.598C747.223 207.49 739.364 198.814 735.19 188.402C733.155 183.456 732.101 178.151 732.086 172.791C732.071 167.43 733.096 162.119 735.103 157.162C737.351 151.639 741.016 146.83 745.717 143.239C747.258 142.09 745.763 139.443 744.203 140.606Z" fill="#E6E6E6"/>
<path d="M533.288 171.26C541.02 171.26 547.288 164.889 547.288 157.031C547.288 149.173 541.02 142.802 533.288 142.802C525.556 142.802 519.288 149.173 519.288 157.031C519.288 164.889 525.556 171.26 533.288 171.26Z" fill="#E6E6E6"/>
</g>
<defs>
<clipPath id="clip0_3_66">
<rect width="882.951" height="622.148" fill="white"/>
</clipPath>
</defs>
</svg>
