<svg width="109" height="16" viewBox="0 0 109 16" fill="none" xmlns="http://www.w3.org/2000/svg">
<path d="M0.4 15H3.12V10.12H6.15L8.52 15H11.6L9 9.66C9.82 9.28667 10.4233 8.72333 10.81 7.97C11.2033 7.21 11.4 6.34 11.4 5.36C11.4 4.14667 11.1033 3.11333 10.51 2.26C9.91667 1.40667 8.97333 0.879999 7.68 0.68C7.49333 0.646666 7.28 0.626666 7.04 0.619999C6.80667 0.606666 6.62 0.599999 6.48 0.599999H0.4V15ZM3.12 7.58V3.14H6.36C6.5 3.14 6.65333 3.14667 6.82 3.16C6.98667 3.17333 7.14 3.2 7.28 3.24C7.64667 3.34 7.93 3.51 8.13 3.75C8.33 3.98333 8.46667 4.24667 8.54 4.54C8.62 4.82667 8.66 5.1 8.66 5.36C8.66 5.62 8.62 5.89667 8.54 6.19C8.46667 6.47667 8.33 6.74 8.13 6.98C7.93 7.21333 7.64667 7.38 7.28 7.48C7.14 7.52 6.98667 7.54667 6.82 7.56C6.65333 7.57333 6.5 7.58 6.36 7.58H3.12ZM12.7984 15H15.5984L16.5084 12H21.9284L22.8584 15H25.6584L21.2584 0.599999H17.1984L12.7984 15ZM17.2784 9.46L19.1984 3.15L21.1484 9.46H17.2784ZM30.4708 15.3C31.2641 15.3 31.9874 15.14 32.6408 14.82C33.2941 14.5 33.8241 13.9867 34.2308 13.28C34.4174 12.96 34.5408 12.6533 34.6008 12.36C34.6674 12.06 34.7008 11.74 34.7008 11.4C34.7074 11.06 34.7108 10.66 34.7108 10.2V0.599999H31.9508V10.2C31.9508 10.5667 31.9441 10.89 31.9308 11.17C31.9174 11.45 31.8708 11.6867 31.7908 11.88C31.6641 12.1867 31.4541 12.41 31.1608 12.55C30.8741 12.69 30.6041 12.76 30.3508 12.76C29.9841 12.76 29.6374 12.6267 29.3108 12.36C28.9841 12.0867 28.7908 11.7667 28.7308 11.4L26.0508 12.04C26.3641 13.04 26.8908 13.8333 27.6308 14.42C28.3774 15.0067 29.3241 15.3 30.4708 15.3ZM41.7086 15H48.0886C49.5619 15 50.6553 14.5967 51.3686 13.79C52.0886 12.9767 52.4486 11.9267 52.4486 10.64C52.4486 9.94667 52.2786 9.31 51.9386 8.73C51.6053 8.14333 51.1019 7.71 50.4286 7.43C50.8553 7.17 51.1886 6.80333 51.4286 6.33C51.6686 5.85667 51.7886 5.29333 51.7886 4.64C51.7886 4.00667 51.6419 3.38 51.3486 2.76C51.0553 2.14 50.5919 1.62667 49.9586 1.22C49.3253 0.806666 48.4953 0.599999 47.4686 0.599999H41.7086V15ZM44.4686 6.22V3.14H47.4286C47.9486 3.14 48.3453 3.29 48.6186 3.59C48.8919 3.89 49.0286 4.26 49.0286 4.7C49.0286 5.22667 48.8753 5.61333 48.5686 5.86C48.2686 6.1 47.8886 6.22 47.4286 6.22H44.4686ZM44.4686 12.44V8.76H47.8086C48.4419 8.76 48.9153 8.93 49.2286 9.27C49.5486 9.60333 49.7086 10.0267 49.7086 10.54C49.7086 11.12 49.5286 11.5833 49.1686 11.93C48.8153 12.27 48.3619 12.44 47.8086 12.44H44.4686ZM60.623 15.3C62.063 15.3 63.303 14.9867 64.343 14.36C65.3896 13.7333 66.193 12.8567 66.753 11.73C67.3196 10.6033 67.603 9.29333 67.603 7.8C67.603 6.30667 67.3196 4.99667 66.753 3.87C66.193 2.74333 65.3896 1.86667 64.343 1.24C63.303 0.613333 62.063 0.3 60.623 0.3C59.183 0.3 57.9396 0.613333 56.893 1.24C55.853 1.86667 55.0496 2.74333 54.483 3.87C53.923 4.99667 53.643 6.30667 53.643 7.8C53.643 9.29333 53.923 10.6033 54.483 11.73C55.0496 12.8567 55.853 13.7333 56.893 14.36C57.9396 14.9867 59.183 15.3 60.623 15.3ZM60.623 12.74C59.2563 12.72 58.2296 12.2667 57.543 11.38C56.863 10.4933 56.523 9.3 56.523 7.8C56.523 6.3 56.863 5.09667 57.543 4.19C58.2296 3.28333 59.2563 2.84 60.623 2.86C61.9963 2.88 63.023 3.33333 63.703 4.22C64.383 5.10667 64.723 6.3 64.723 7.8C64.723 9.3 64.383 10.5033 63.703 11.41C63.023 12.3167 61.9963 12.76 60.623 12.74ZM75.7792 15.3C77.2192 15.3 78.4592 14.9867 79.4992 14.36C80.5459 13.7333 81.3492 12.8567 81.9092 11.73C82.4759 10.6033 82.7592 9.29333 82.7592 7.8C82.7592 6.30667 82.4759 4.99667 81.9092 3.87C81.3492 2.74333 80.5459 1.86667 79.4992 1.24C78.4592 0.613333 77.2192 0.3 75.7792 0.3C74.3392 0.3 73.0959 0.613333 72.0492 1.24C71.0092 1.86667 70.2059 2.74333 69.6392 3.87C69.0792 4.99667 68.7992 6.30667 68.7992 7.8C68.7992 9.29333 69.0792 10.6033 69.6392 11.73C70.2059 12.8567 71.0092 13.7333 72.0492 14.36C73.0959 14.9867 74.3392 15.3 75.7792 15.3ZM75.7792 12.74C74.4126 12.72 73.3859 12.2667 72.6992 11.38C72.0192 10.4933 71.6792 9.3 71.6792 7.8C71.6792 6.3 72.0192 5.09667 72.6992 4.19C73.3859 3.28333 74.4126 2.84 75.7792 2.86C77.1526 2.88 78.1792 3.33333 78.8592 4.22C79.5392 5.10667 79.8792 6.3 79.8792 7.8C79.8792 9.3 79.5392 10.5033 78.8592 11.41C78.1792 12.3167 77.1526 12.76 75.7792 12.74ZM84.7555 15H87.4755V8.44L93.2155 15H96.6555L90.2555 7.7L96.2755 0.599999H92.9555L87.4755 7.24V0.599999H84.7555V15ZM102.891 15.3C103.624 15.3 104.334 15.2067 105.021 15.02C105.714 14.8333 106.334 14.5533 106.881 14.18C107.427 13.8 107.861 13.3233 108.181 12.75C108.507 12.17 108.671 11.4933 108.671 10.72C108.671 9.99333 108.534 9.39333 108.261 8.92C107.994 8.44667 107.651 8.06667 107.231 7.78C106.817 7.48667 106.384 7.26 105.931 7.1C105.477 6.93333 105.064 6.8 104.691 6.7L102.191 6.02C101.884 5.94 101.584 5.84 101.291 5.72C100.997 5.6 100.754 5.44333 100.561 5.25C100.367 5.05 100.271 4.79333 100.271 4.48C100.271 4.14 100.387 3.84667 100.621 3.6C100.861 3.35333 101.167 3.16667 101.541 3.04C101.921 2.90667 102.324 2.84667 102.751 2.86C103.404 2.88 104.004 3.07333 104.551 3.44C105.097 3.80667 105.451 4.34 105.611 5.04L108.551 4.54C108.204 3.18667 107.531 2.15 106.531 1.43C105.531 0.709999 104.284 0.34 102.791 0.319999C101.804 0.313332 100.904 0.466666 100.091 0.779999C99.2774 1.09333 98.6274 1.57 98.1408 2.21C97.6541 2.85 97.4108 3.65333 97.4108 4.62C97.4108 5.30667 97.5241 5.87667 97.7508 6.33C97.9841 6.77667 98.2741 7.13667 98.6208 7.41C98.9674 7.68333 99.3241 7.89333 99.6908 8.04C100.064 8.18667 100.391 8.3 100.671 8.38L104.411 9.48C104.971 9.64667 105.344 9.85667 105.531 10.11C105.717 10.3567 105.811 10.6267 105.811 10.92C105.811 11.32 105.674 11.6567 105.401 11.93C105.134 12.2033 104.791 12.41 104.371 12.55C103.951 12.69 103.517 12.76 103.071 12.76C102.271 12.76 101.557 12.5367 100.931 12.09C100.304 11.6433 99.8908 11.0067 99.6908 10.18L96.8508 10.6C96.9974 11.5733 97.3441 12.4133 97.8908 13.12C98.4441 13.82 99.1474 14.36 100.001 14.74C100.861 15.1133 101.824 15.3 102.891 15.3Z" fill="white"/>
</svg>
